<svg xmlns="http://www.w3.org/2000/svg" width="40" height="40" viewBox="0 0 40 40">
  <g id="fb_footer" transform="translate(-10 -623)">
    <g id="pad" transform="translate(10 623)" fill="none" stroke="#fff" stroke-width="1" opacity="0.302">
      <circle cx="20" cy="20" r="20" stroke="none"/>
      <circle cx="20" cy="20" r="19.5" fill="none"/>
    </g>
    <path id="icon_FB" data-name="icon | FB" d="M34,644l1-3H31l.008-2.287c0-.886,1.058-1.749,2.508-1.749h1.472v-2.757a18.723,18.723,0,0,0-2.613-.218,4,4,0,0,0-4.357,4.358L28,641H25v3h3v7.834a8.27,8.27,0,0,0,1.493.181A8.421,8.421,0,0,0,31,651.833V644Z" fill="#fff"/>
  </g>
</svg>
