<svg xmlns="http://www.w3.org/2000/svg" width="150.774" height="24.984" viewBox="0 0 150.774 24.984">
  <g id="hotNews_logo" transform="translate(-394.032 -14.082)">
    <path id="News.bg" d="M540.032,39.066h-.115a6.025,6.025,0,0,1-3.3-.963,3.315,3.315,0,0,1-1.561-2.889l1.919.024v.05a1.98,1.98,0,0,0,.859,1.778,3.462,3.462,0,0,0,1.957.567c.069,0,.146,0,.231-.012s.179-.013.281-.013c.086-.016.17-.028.257-.037a1.694,1.694,0,0,0,.23-.037,2.24,2.24,0,0,0,2.034-1.346,7.25,7.25,0,0,0,.372-2.334V32.6a3.72,3.72,0,0,1-1.4,1.457,4.821,4.821,0,0,1-1.8.617c-.086,0-.175,0-.269.013s-.183.013-.268.013a4.575,4.575,0,0,1-3.135-1.283,4.952,4.952,0,0,1-1.471-3.755l-.026-.1a5.475,5.475,0,0,1,1.19-3.469,4.085,4.085,0,0,1,3.417-1.518h.1a4.023,4.023,0,0,1,2.11.531,4.231,4.231,0,0,1,1.471,1.544V24.892h1.69V34.3a10.85,10.85,0,0,1-.167,1.915,2.921,2.921,0,0,1-1.063,1.69,4.958,4.958,0,0,1-1.586.828,7.276,7.276,0,0,1-1.818.333Zm-.244-12.891a2.874,2.874,0,0,0-2.392,1.013,3.7,3.7,0,0,0-.806,2.371v.075a.207.207,0,0,0,.025.1v.025a.35.35,0,0,0,.013.112.267.267,0,0,1,.013.085,3.681,3.681,0,0,0,.908,2.309,3.062,3.062,0,0,0,2.317.9.052.052,0,0,1,.039.014.049.049,0,0,0,.038.011.077.077,0,0,1,.051.025,2.739,2.739,0,0,0,2.3-1.024,3.852,3.852,0,0,0,.845-2.236v-.309a.712.712,0,0,0-.026-.185,4,4,0,0,0-.9-2.272,2.89,2.89,0,0,0-2.354-1.062ZM491.08,23.533,486.5,35.741l-6.677-16.673h2.765l3.876,10.626,4.411-11.436h.4l4.352,11.436,3.9-10.626h2.8l-6.658,16.673Zm-44.567-2.786V34.908h-2.5V14.082l14.162,14.995V14.916l2.516-.041-.018,20.867Zm72.031,13.861a1.127,1.127,0,0,1-.4-.952,1.1,1.1,0,0,1,.4-.928,1.377,1.377,0,0,1,.86-.31,1.357,1.357,0,0,1,.871.31,1.118,1.118,0,0,1,.387.928,1.146,1.146,0,0,1-.387.952,1.362,1.362,0,0,1-.871.31A1.382,1.382,0,0,1,518.543,34.608ZM506.4,34.133a5.779,5.779,0,0,1-2.4-2.322l2.243-1.446a4.493,4.493,0,0,0,1.608,1.759,4.414,4.414,0,0,0,2.3.586,3.366,3.366,0,0,0,2.09-.608,1.932,1.932,0,0,0,.8-1.6,1.708,1.708,0,0,0-.545-1.287,5.184,5.184,0,0,0-1.871-.949c-.091-.027-.234-.076-.434-.142q-5.607-1.84-5.6-4.623a3.921,3.921,0,0,1,1.512-3.187,5.969,5.969,0,0,1,3.92-1.238,7.146,7.146,0,0,1,3.422.761,4.5,4.5,0,0,1,2.049,2.158l-2.129,1.254a3.473,3.473,0,0,0-1.386-1.555,4.036,4.036,0,0,0-2.122-.548,2.83,2.83,0,0,0-1.889.619,1.967,1.967,0,0,0-.727,1.577q0,1.349,3.05,2.263c.383.121.688.209.911.274a8.6,8.6,0,0,1,3.479,1.759,3.537,3.537,0,0,1,.979,2.607,4.173,4.173,0,0,1-1.552,3.374,6.139,6.139,0,0,1-4.053,1.292A7.9,7.9,0,0,1,506.4,34.133ZM465.627,32.7a8.291,8.291,0,0,1-2.445-5.793,8.1,8.1,0,0,1,2.428-5.629,7.094,7.094,0,0,1,5.369-2.19,6.824,6.824,0,0,1,5.247,2.081,8.2,8.2,0,0,1,1.933,5.747v.5H466.328v.224a5.116,5.116,0,0,0,1.371,3.726c.913.967,2.106,1.055,3.575,1.055a4.628,4.628,0,0,0,2.709-.4,6.966,6.966,0,0,0,2.138-2.392l1.938,1.278a7.721,7.721,0,0,1-2.868,2.993,7.953,7.953,0,0,1-4.048,1.009A7.277,7.277,0,0,1,465.627,32.7Zm2.138-10.325a3.451,3.451,0,0,0-1.437,2.526l9.091.017V24.9a3.273,3.273,0,0,0-1.316-2.576c-.786-.7-1.866-.775-3.236-.775A4.361,4.361,0,0,0,467.765,22.375Zm60.758,12.444h-.345a4.553,4.553,0,0,1-1.9-.581,3.617,3.617,0,0,1-1.4-1.518v1.347h-1.721V18.241h1.728v8.453a4.379,4.379,0,0,1,1.442-1.58,3.806,3.806,0,0,1,2.081-.543h.281a4.035,4.035,0,0,1,3.331,1.555,5.7,5.7,0,0,1,1.136,3.532,4.913,4.913,0,0,1-1.443,3.816,4.685,4.685,0,0,1-3.152,1.346Zm-2.783-7.606a3.739,3.739,0,0,0-.932,2.518l-.051.123a3.252,3.252,0,0,0,1.033,2.569,3.374,3.374,0,0,0,2.286.913h.2a3.286,3.286,0,0,0,2.13-1.013,3.564,3.564,0,0,0,.958-2.667,4.207,4.207,0,0,0-.638-2.309,2.588,2.588,0,0,0-2.042-1.148h-.536A3.078,3.078,0,0,0,525.74,27.213Z" fill="#fff"/>
    <path id="Hot" d="M420.4,34.9h-.233c-.239,0-.482-.012-.734-.034a7.381,7.381,0,0,1-.734-.1,12.427,12.427,0,0,1-1.326-.269,7.276,7.276,0,0,1-1.22-.44,8.337,8.337,0,0,1-3.368-2.993,7.408,7.408,0,0,1-1.254-4.073c0-.248.013-.507.036-.778a4.911,4.911,0,0,1,.143-.811,6.629,6.629,0,0,1,.322-1.1,5.963,5.963,0,0,1,.537-1.065,7.966,7.966,0,0,1,3.3-3.076,9.558,9.558,0,0,1,4.407-1.083q.394,0,.77.034c.25.022.508.057.77.1a10.419,10.419,0,0,1,1.756.423,8.378,8.378,0,0,1,4.263,3.329,7.9,7.9,0,0,1,1.183,3.38,3.877,3.877,0,0,0,.018.39c.012.123.018.242.018.355,0,.158-.006.321-.018.491s-.03.332-.053.49a7.141,7.141,0,0,1-.573,1.959,7.616,7.616,0,0,1-3.172,3.466,10.055,10.055,0,0,1-4.568,1.4Zm-2.426-10.57a3.183,3.183,0,0,0-.878,2.184,3.352,3.352,0,0,0,3.224,3.229,2.837,2.837,0,0,0,2.366-.992,3.411,3.411,0,0,0,.788-2.169v-.2a3.625,3.625,0,0,0-.843-2.069,2.786,2.786,0,0,0-2.311-.958A3,3,0,0,0,417.97,24.335ZM404.83,34.9V25.858a5.128,5.128,0,0,0-.034-.581,4.328,4.328,0,0,0-.313-1.194,1.7,1.7,0,0,0-1.165-1.007,1.58,1.58,0,0,0-.4-.051,1.167,1.167,0,0,0-.277-.033h-.557a2.1,2.1,0,0,0-.365.033l-.365.068a2.7,2.7,0,0,0-1.763,1.434,6.78,6.78,0,0,0-.486,2.151q-.035.375-.035.733V34.9h-5.037V14.928h5.037v4.545q0,.545-.052,1.076c-.034.353-.076.711-.121,1.075-.023.113-.041.216-.052.308a2.137,2.137,0,0,0-.018.273,8.136,8.136,0,0,1,2.493-2.347,5.859,5.859,0,0,1,3.2-.837h.939a4.771,4.771,0,0,1,1.9.7,4.3,4.3,0,0,1,1.738,1.493,5.115,5.115,0,0,1,.626,1.809,17.471,17.471,0,0,1,.173,1.947V34.9Zm28.364,0V23.256h-2.508V19.087h2.508V14.933h5.011v4.154h2.486v4.169h-2.486V34.895Z" fill="#ed2129"/>
  </g>
</svg>
