<svg xmlns="http://www.w3.org/2000/svg" width="40" height="40" viewBox="0 0 40 40">
  <g id="instagram_footer" transform="translate(-98 -623)">
    <g id="pad" transform="translate(98 623)" fill="none" stroke="#fff" stroke-width="1" opacity="0.302">
      <circle cx="20" cy="20" r="20" stroke="none"/>
      <circle cx="20" cy="20" r="19.5" fill="none"/>
    </g>
    <path id="icon_Instagram" data-name="icon | Instagram" d="M114.625,652A5.626,5.626,0,0,1,109,646.375v-6.751A5.626,5.626,0,0,1,114.625,634h6.75A5.626,5.626,0,0,1,127,639.625v6.751A5.626,5.626,0,0,1,121.375,652Zm-3.937-12.376v6.751a3.942,3.942,0,0,0,3.938,3.937h6.75a3.941,3.941,0,0,0,3.938-3.937v-6.751a3.941,3.941,0,0,0-3.937-3.937h-6.75A3.942,3.942,0,0,0,110.687,639.625ZM113.5,643a4.5,4.5,0,1,1,4.5,4.5A4.5,4.5,0,0,1,113.5,643Zm1.688,0A2.813,2.813,0,1,0,118,640.188,2.816,2.816,0,0,0,115.187,643Zm7.052-4.839a.6.6,0,1,1,.6.6A.6.6,0,0,1,122.24,638.16Z" fill="#fff"/>
  </g>
</svg>
