<svg xmlns="http://www.w3.org/2000/svg" width="40" height="40" viewBox="0 0 40 40">
  <g id="twitter_footer" transform="translate(-54 -623)">
    <g id="pad" transform="translate(54 623)" fill="none" stroke="#fff" stroke-width="1" opacity="0.302">
      <circle cx="20" cy="20" r="20" stroke="none"/>
      <circle cx="20" cy="20" r="19.5" fill="none"/>
    </g>
    <path id="icon_Twitter" data-name="icon | Twitter" d="M84.012,636.121a7.633,7.633,0,0,1-2.359.718,4.515,4.515,0,0,0,1.806-2.516,7.786,7.786,0,0,1-2.608,1.1,3.922,3.922,0,0,0-3-1.437,4.345,4.345,0,0,0-4.106,4.548,5.031,5.031,0,0,0,.107,1.037,11.329,11.329,0,0,1-8.464-4.753,4.915,4.915,0,0,0-.555,2.287,4.693,4.693,0,0,0,1.826,3.786,3.8,3.8,0,0,1-1.86-.569v.057a4.46,4.46,0,0,0,3.292,4.459,3.708,3.708,0,0,1-1.854.079,4.193,4.193,0,0,0,3.836,3.159,7.747,7.747,0,0,1-5.1,1.946,7.427,7.427,0,0,1-.979-.064A10.811,10.811,0,0,0,70.292,652c7.552,0,11.683-6.931,11.683-12.937,0-.2,0-.395-.012-.589a8.875,8.875,0,0,0,2.048-2.355" fill="#fff"/>
  </g>
</svg>
